<svg width="25" height="24" viewBox="0 0 25 24" fill="none" xmlns="http://www.w3.org/2000/svg">
<mask id="mask0_406_9462" style="mask-type:luminance" maskUnits="userSpaceOnUse" x="0" y="0" width="25" height="24">
<path d="M-7.24792e-05 24L24.0425 24L24.0425 0L-7.24792e-05 0L-7.24792e-05 24Z" fill="white"/>
</mask>
<g mask="url(#mask0_406_9462)">
<path d="M14.3285 14.5454C11.646 14.5454 9.47144 12.3747 9.47144 9.69696V1.93939C9.47144 0.868292 10.3412 3.34278e-07 11.4143 2.40636e-07L14.1717 0C14.7 -4.6104e-08 15.0571 0.684751 15.0571 1.21212V7.03032C15.0571 8.10144 15.9269 8.9697 16.9999 8.9697H22.8284C23.3567 8.9697 24.0427 9.3261 24.0427 9.8535V12.6061C24.0427 13.6772 23.1728 14.5454 22.0998 14.5454H14.3285Z" fill="#E90D33"/>
<path d="M10.3566 23.9995C9.86376 23.9995 9.51196 23.6811 9.30934 23.3717C9.10347 23.0574 8.98561 22.6624 8.98561 22.3026V16.4844C8.98561 15.6811 8.33321 15.0298 7.52845 15.0298H1.69998C1.33946 15.0298 0.943853 14.9122 0.628944 14.7067C0.319061 14.5044 2.84153e-07 14.1532 2.41063e-07 13.6612L0 10.9086C-1.17256e-07 9.56978 1.08731 8.48438 2.42854 8.48438H8.74272V9.93896C8.74272 12.8845 11.1348 15.2722 14.0855 15.2722H15.5427V21.5753C15.5427 22.8723 14.5222 23.9315 13.2391 23.9965L13.1141 23.9995H10.3566Z" fill="#E90D33"/>
<path d="M19.2341 7.7998C20.8939 7.7998 22.2394 6.45666 22.2394 4.7998C22.2394 3.14295 20.8939 1.7998 19.2341 1.7998C17.5743 1.7998 16.2288 3.14295 16.2288 4.7998C16.2288 6.45666 17.5743 7.7998 19.2341 7.7998Z" fill="#E90D33"/>
</g>
</svg>
