<svg width="113" height="24" viewBox="0 0 113 24" fill="none" xmlns="http://www.w3.org/2000/svg">
<g clip-path="url(#clip0_406_9461)">
<mask id="mask0_406_9461" style="mask-type:luminance" maskUnits="userSpaceOnUse" x="0" y="0" width="25" height="24">
<path d="M-7.24792e-05 24L24.0425 24L24.0425 0L-7.24792e-05 0L-7.24792e-05 24Z" fill="white"/>
</mask>
<g mask="url(#mask0_406_9461)">
<path d="M14.3285 14.5454C11.646 14.5454 9.47144 12.3747 9.47144 9.69696V1.93939C9.47144 0.868292 10.3412 3.34278e-07 11.4143 2.40636e-07L14.1717 0C14.7 -4.6104e-08 15.0571 0.684751 15.0571 1.21212V7.03032C15.0571 8.10144 15.9269 8.9697 16.9999 8.9697H22.8284C23.3567 8.9697 24.0427 9.3261 24.0427 9.8535V12.6061C24.0427 13.6772 23.1728 14.5454 22.0998 14.5454H14.3285Z" fill="#E90D33"/>
<path d="M10.3566 23.9995C9.86376 23.9995 9.51196 23.6811 9.30934 23.3717C9.10347 23.0574 8.98561 22.6624 8.98561 22.3026V16.4844C8.98561 15.6811 8.33321 15.0298 7.52845 15.0298H1.69998C1.33946 15.0298 0.943853 14.9122 0.628944 14.7067C0.319061 14.5044 2.84153e-07 14.1532 2.41063e-07 13.6612L0 10.9086C-1.17256e-07 9.56978 1.08731 8.48438 2.42854 8.48438H8.74272V9.93896C8.74272 12.8845 11.1348 15.2722 14.0855 15.2722H15.5427V21.5753C15.5427 22.8723 14.5222 23.9315 13.2391 23.9965L13.1141 23.9995H10.3566Z" fill="#E90D33"/>
<path d="M19.2341 7.7998C20.8939 7.7998 22.2394 6.45666 22.2394 4.7998C22.2394 3.14295 20.8939 1.7998 19.2341 1.7998C17.5743 1.7998 16.2288 3.14295 16.2288 4.7998C16.2288 6.45666 17.5743 7.7998 19.2341 7.7998Z" fill="#E90D33"/>
</g>
<path d="M42.0072 6.78247C43.0843 6.78247 43.9627 7.16647 44.6423 7.93447C45.3347 8.70247 45.6809 9.68809 45.6809 10.8913V17.4001H42.8727V11.3521C42.8727 9.94411 42.347 9.24007 41.2956 9.24007C40.8852 9.24007 40.5262 9.34249 40.2184 9.54727C39.9235 9.73927 39.6991 10.0273 39.5453 10.4113C39.3914 10.7953 39.3144 11.2561 39.3144 11.7937V17.4001H36.564V11.3521C36.564 9.94411 36.0575 9.24007 35.0445 9.24007C34.4033 9.24007 33.9032 9.46411 33.5442 9.91207C33.1852 10.3601 33.0057 10.9873 33.0057 11.7937V17.4001H30.1975V7.03207H32.1594L32.6787 8.31847C33.0634 7.84489 33.525 7.47367 34.0636 7.20487C34.6149 6.92329 35.1919 6.78247 35.7946 6.78247C36.4486 6.78247 37.0384 6.92971 37.5641 7.22407C38.0898 7.51849 38.5002 7.92811 38.7951 8.45287C38.9233 8.27371 39.058 8.11369 39.199 7.97287C39.3401 7.81927 39.4939 7.68487 39.6607 7.56967C39.8273 7.44169 40.0004 7.33291 40.18 7.24327C40.3595 7.14091 40.5454 7.05769 40.7378 6.99367C40.9429 6.92971 41.1481 6.87847 41.3533 6.84007C41.5712 6.80167 41.7892 6.78247 42.0072 6.78247ZM58.3268 12.1777C58.3268 12.4465 58.3076 12.7217 58.2691 13.0033H50.4216C50.537 13.7073 50.8127 14.2513 51.2487 14.6353C51.6975 15.0065 52.2681 15.1921 52.9605 15.1921C53.4349 15.1921 53.8645 15.0897 54.2492 14.8849C54.6339 14.6673 54.9352 14.3729 55.1532 14.0017H58.1152C57.7306 15.1281 57.0766 16.0241 56.1534 16.6897C55.2301 17.3553 54.1658 17.6881 52.9605 17.6881C51.4218 17.6881 50.1395 17.1633 49.1137 16.1137C48.0879 15.0641 47.575 13.7649 47.575 12.2161C47.575 11.6017 47.6584 11.0129 47.825 10.4497C48.0046 9.88651 48.2546 9.38089 48.5752 8.93287C48.9086 8.48491 49.2932 8.10091 49.7292 7.78087C50.1651 7.44811 50.6589 7.19209 51.2102 7.01287C51.7616 6.83371 52.345 6.74407 52.9605 6.74407C53.9992 6.74407 54.9288 6.98731 55.7495 7.47367C56.5829 7.96009 57.2177 8.61931 57.6536 9.45127C58.1024 10.2833 58.3268 11.1921 58.3268 12.1777ZM52.9605 9.12487C52.3322 9.12487 51.8 9.29767 51.3641 9.64327C50.9409 9.98887 50.6524 10.4689 50.4986 11.0833H55.5186C55.3904 10.6609 55.2045 10.3089 54.9609 10.0273C54.7172 9.73291 54.4223 9.50887 54.0761 9.35527C53.7427 9.20167 53.3709 9.12487 52.9605 9.12487ZM67.9617 3.28809H70.7699V17.4001H68.6926L68.3656 16.5361C67.4424 17.3169 66.3587 17.7073 65.1151 17.7073C64.0764 17.7073 63.1406 17.4705 62.3069 16.9969C61.4732 16.5233 60.8193 15.8705 60.345 15.0385C59.8835 14.1937 59.6526 13.2529 59.6526 12.2161C59.6526 11.1793 59.8835 10.2449 60.345 9.41287C60.8193 8.58091 61.4732 7.92811 62.3069 7.45447C63.1406 6.98089 64.0764 6.74407 65.1151 6.74407C66.1663 6.74407 67.1154 7.02571 67.9617 7.58887V3.28809ZM63.307 14.2513C63.8456 14.7889 64.5188 15.0577 65.3266 15.0577C66.1471 15.0577 66.8269 14.7889 67.3654 14.2513C67.904 13.7009 68.1733 13.0225 68.1733 12.2161C68.1733 11.3969 67.904 10.7185 67.3654 10.1809C66.8269 9.64327 66.1471 9.37447 65.3266 9.37447C64.5188 9.37447 63.8456 9.64327 63.307 10.1809C62.7685 10.7185 62.4992 11.3969 62.4992 12.2161C62.4992 13.0353 62.7685 13.7137 63.307 14.2513ZM79.1295 6.74407C80.6934 6.74407 81.9887 7.26247 83.0147 8.29927C84.0534 9.33607 84.5727 10.6417 84.5727 12.2161C84.5727 13.7905 84.0534 15.1025 83.0147 16.1521C81.9761 17.1889 80.6808 17.7073 79.1295 17.7073C78.065 17.7073 77.1099 17.4193 76.2636 16.8433V21.1441H73.4554V7.03207H75.3211L75.802 7.97287C76.7252 7.15369 77.8342 6.74407 79.1295 6.74407ZM76.8598 14.2513C77.3984 14.7889 78.0716 15.0577 78.8794 15.0577C79.6999 15.0577 80.3797 14.7889 80.9182 14.2513C81.4568 13.7137 81.7261 13.0353 81.7261 12.2161C81.7261 11.6785 81.604 11.1921 81.3606 10.7569C81.1166 10.3217 80.777 9.98251 80.3412 9.73927C79.918 9.49609 79.4372 9.37447 78.8987 9.37447C78.3601 9.37447 77.8726 9.49609 77.4369 9.73927C77.0005 9.98251 76.6609 10.3217 76.4175 10.7569C76.1866 11.1921 76.0712 11.6785 76.0712 12.2161C76.0712 13.0353 76.3339 13.7137 76.8598 14.2513ZM86.5658 17.4001V3.28809H89.374V17.4001H86.5658ZM100.34 16.4209C99.4556 17.2657 98.2757 17.6881 96.8013 17.6881C95.3396 17.6881 94.1597 17.2593 93.2623 16.4017C92.3775 15.5441 91.9351 14.4177 91.9351 13.0225V7.03207H94.7433V12.6961C94.7433 13.4385 94.9224 14.0209 95.2818 14.4433C95.6533 14.8529 96.16 15.0577 96.8013 15.0577C97.4553 15.0577 97.9614 14.8529 98.3208 14.4433C98.6923 14.0209 98.8786 13.4385 98.8786 12.6961V7.03207H101.687V13.0225C101.687 14.4305 101.238 15.5633 100.34 16.4209ZM107.934 17.6881C107.075 17.6881 106.312 17.5345 105.645 17.2273C104.991 16.9201 104.478 16.4849 104.107 15.9217C103.747 15.3585 103.568 14.7121 103.568 13.9825H106.299C106.312 14.2897 106.389 14.5521 106.53 14.7697C106.684 14.9745 106.889 15.1281 107.146 15.2305C107.402 15.3201 107.697 15.3649 108.03 15.3649C108.3 15.3649 108.543 15.3265 108.761 15.2497C108.979 15.1729 109.159 15.0577 109.3 14.9041C109.441 14.7377 109.511 14.5457 109.511 14.3281C109.511 14.0081 109.344 13.7713 109.011 13.6177C108.678 13.4641 108.178 13.3297 107.511 13.2145C107.088 13.1505 106.735 13.0865 106.453 13.0225C106.184 12.9585 105.857 12.8497 105.472 12.6961C105.1 12.5297 104.799 12.3441 104.568 12.1393C104.35 11.9345 104.158 11.6529 103.991 11.2945C103.824 10.9361 103.741 10.5201 103.741 10.0465C103.741 9.07369 104.126 8.28007 104.895 7.66567C105.665 7.05127 106.671 6.74407 107.915 6.74407C109.171 6.74407 110.178 7.06411 110.935 7.70407C111.704 8.33131 112.089 9.16327 112.089 10.2001H109.415C109.415 9.38089 108.896 8.97127 107.857 8.97127C107.421 8.97127 107.081 9.06091 106.838 9.24007C106.594 9.41929 106.472 9.66247 106.472 9.96967C106.472 10.0977 106.504 10.2193 106.569 10.3345C106.646 10.4369 106.729 10.5201 106.819 10.5841C106.921 10.6481 107.075 10.7121 107.28 10.7761C107.485 10.8273 107.658 10.8657 107.8 10.8913C107.94 10.9169 108.152 10.9553 108.434 11.0065C108.678 11.0577 108.851 11.0961 108.954 11.1217C109.056 11.1345 109.229 11.1665 109.473 11.2177C109.716 11.2689 109.896 11.3201 110.012 11.3713C110.14 11.4097 110.306 11.4673 110.512 11.5441C110.729 11.6209 110.89 11.7041 110.992 11.7937C111.108 11.8705 111.243 11.9665 111.396 12.0817C111.563 12.1969 111.691 12.3249 111.781 12.4657C111.871 12.6065 111.96 12.7601 112.05 12.9265C112.14 13.0929 112.198 13.2849 112.223 13.5025C112.262 13.7201 112.281 13.9505 112.281 14.1937C112.281 15.2561 111.883 16.1073 111.089 16.7473C110.293 17.3745 109.242 17.6881 107.934 17.6881Z" fill="#E90D33"/>
</g>
<defs>
<clipPath id="clip0_406_9461">
<rect width="113" height="24" fill="white"/>
</clipPath>
</defs>
</svg>
