<svg width="150" height="32" viewBox="0 0 150 32" fill="none" xmlns="http://www.w3.org/2000/svg">
<g clip-path="url(#clip0_415_12066)">
<mask id="mask0_415_12066" style="mask-type:luminance" maskUnits="userSpaceOnUse" x="0" y="0" width="32" height="32">
<path d="M-9.91821e-05 32L31.9148 32L31.9148 0L-9.91821e-05 0L-9.91821e-05 32Z" fill="white"/>
</mask>
<g mask="url(#mask0_415_12066)">
<path d="M19.02 19.3939C15.4591 19.3939 12.5725 16.4996 12.5725 12.9293V2.58586C12.5725 1.15772 13.7271 4.45704e-07 15.1515 3.20848e-07L18.8118 0C19.5131 -6.1472e-08 19.9871 0.913002 19.9871 1.61616V9.37375C19.9871 10.8019 21.1417 11.9596 22.566 11.9596H30.303C31.0042 11.9596 31.9149 12.4348 31.9149 13.138V16.8081C31.9149 18.2362 30.7602 19.3939 29.3359 19.3939H19.02Z" fill="white"/>
<path d="M13.7477 31.9994C13.0935 31.9994 12.6265 31.5747 12.3575 31.1623C12.0843 30.7431 11.9278 30.2166 11.9278 29.7367V21.9791C11.9278 20.9081 11.0618 20.0398 9.99351 20.0398H2.25661C1.77805 20.0398 1.2529 19.8829 0.834881 19.6089C0.423533 19.3392 3.77194e-07 18.871 3.19995e-07 18.215L0 14.5448C-1.55649e-07 12.7597 1.44333 11.3125 3.22373 11.3125H11.6054V13.2519C11.6054 17.1793 14.7807 20.363 18.6976 20.363H20.6319V28.7671C20.6319 30.4964 19.2773 31.9087 17.574 31.9953L17.4081 31.9994H13.7477Z" fill="white"/>
<path d="M25.5318 10.4004C27.7351 10.4004 29.5212 8.60953 29.5212 6.40039C29.5212 4.19125 27.7351 2.40039 25.5318 2.40039C23.3286 2.40039 21.5425 4.19125 21.5425 6.40039C21.5425 8.60953 23.3286 10.4004 25.5318 10.4004Z" fill="white"/>
</g>
<path d="M55.7618 9.04395C57.1916 9.04395 58.3575 9.55595 59.2597 10.5799C60.1788 11.6039 60.6384 12.9181 60.6384 14.5223V23.2008H56.9107V15.1367C56.9107 13.2595 56.2128 12.3207 54.8171 12.3207C54.2724 12.3207 53.7958 12.4573 53.3873 12.7303C52.9958 12.9864 52.698 13.3703 52.4937 13.8823C52.2895 14.3944 52.1873 15.0087 52.1873 15.7255V23.2008H48.5363V15.1367C48.5363 13.2595 47.8639 12.3207 46.5192 12.3207C45.6682 12.3207 45.0043 12.6195 44.5278 13.2168C44.0511 13.8141 43.8129 14.6503 43.8129 15.7255V23.2008H40.0852V9.37675H42.6895L43.3788 11.0919C43.8895 10.4605 44.5022 9.96555 45.2171 9.60715C45.949 9.23171 46.715 9.04395 47.515 9.04395C48.3831 9.04395 49.166 9.24027 49.8639 9.63275C50.5617 10.0253 51.1065 10.5715 51.498 11.2712C51.6682 11.0323 51.8469 10.8189 52.0341 10.6311C52.2213 10.4263 52.4256 10.2471 52.6469 10.0935C52.8682 9.92291 53.0979 9.77787 53.3363 9.65835C53.5745 9.52187 53.8214 9.41091 54.0767 9.32555C54.349 9.24027 54.6213 9.17195 54.8937 9.12075C55.183 9.06955 55.4724 9.04395 55.7618 9.04395ZM77.425 16.2376C77.425 16.596 77.3995 16.9629 77.3484 17.3384H66.9314C67.0846 18.2771 67.4506 19.0023 68.0292 19.5143C68.625 20.0093 69.3824 20.2568 70.3016 20.2568C70.9313 20.2568 71.5016 20.1203 72.0122 19.8471C72.5229 19.5571 72.9228 19.1645 73.2122 18.6695H77.1441C76.6335 20.1715 75.7654 21.3661 74.5399 22.2535C73.3144 23.1411 71.9016 23.5848 70.3016 23.5848C68.259 23.5848 66.5569 22.8851 65.1952 21.4855C63.8335 20.0861 63.1527 18.3539 63.1527 16.2887C63.1527 15.4696 63.2633 14.6845 63.4846 13.9335C63.7229 13.1827 64.0548 12.5085 64.4803 11.9111C64.9229 11.3139 65.4335 10.8019 66.0122 10.3751C66.5909 9.93147 67.2463 9.59011 67.9782 9.35115C68.7101 9.11227 69.4846 8.99275 70.3016 8.99275C71.6803 8.99275 72.9144 9.31707 74.0037 9.96555C75.1101 10.6141 75.9527 11.4931 76.5314 12.6024C77.1271 13.7117 77.425 14.9235 77.425 16.2376ZM70.3016 12.1671C69.4676 12.1671 68.7611 12.3975 68.1824 12.8583C67.6207 13.3191 67.2378 13.9591 67.0335 14.7783H73.6973C73.5271 14.2151 73.2803 13.7459 72.9569 13.3703C72.6335 12.9779 72.242 12.6792 71.7824 12.4743C71.3399 12.2695 70.8463 12.1671 70.3016 12.1671ZM90.2146 4.38477H93.9423V23.2008H91.1849L90.7508 22.0487C89.5253 23.0899 88.0867 23.6103 86.4359 23.6103C85.0572 23.6103 83.8149 23.2947 82.7083 22.6632C81.6016 22.0317 80.7335 21.1613 80.104 20.052C79.4913 18.9256 79.1849 17.6712 79.1849 16.2887C79.1849 14.9064 79.4913 13.6605 80.104 12.5511C80.7335 11.4419 81.6016 10.5715 82.7083 9.93995C83.8149 9.30851 85.0572 8.99275 86.4359 8.99275C87.8314 8.99275 89.0912 9.36827 90.2146 10.1191V4.38477ZM84.0359 19.0023C84.7508 19.7192 85.6444 20.0775 86.7168 20.0775C87.8059 20.0775 88.7083 19.7192 89.4232 19.0023C90.1381 18.2685 90.4955 17.3639 90.4955 16.2887C90.4955 15.1965 90.1381 14.2919 89.4232 13.5751C88.7083 12.8583 87.8059 12.4999 86.7168 12.4999C85.6444 12.4999 84.7508 12.8583 84.0359 13.5751C83.321 14.2919 82.9636 15.1965 82.9636 16.2887C82.9636 17.3811 83.321 18.2856 84.0359 19.0023ZM105.039 8.99275C107.115 8.99275 108.835 9.68395 110.197 11.0663C111.575 12.4487 112.265 14.1895 112.265 16.2887C112.265 18.3879 111.575 20.1373 110.197 21.5367C108.818 22.9191 107.098 23.6103 105.039 23.6103C103.626 23.6103 102.358 23.2264 101.235 22.4583V28.1928H97.5072V9.37675H99.9838L100.622 10.6311C101.848 9.53891 103.32 8.99275 105.039 8.99275ZM102.026 19.0023C102.741 19.7192 103.635 20.0775 104.707 20.0775C105.796 20.0775 106.699 19.7192 107.414 19.0023C108.128 18.2856 108.486 17.3811 108.486 16.2887C108.486 15.5719 108.324 14.9235 108.001 14.3432C107.677 13.7629 107.226 13.3107 106.648 12.9864C106.086 12.6621 105.448 12.4999 104.733 12.4999C104.018 12.4999 103.371 12.6621 102.792 12.9864C102.213 13.3107 101.762 13.7629 101.439 14.3432C101.133 14.9235 100.98 15.5719 100.98 16.2887C100.98 17.3811 101.328 18.2856 102.026 19.0023ZM114.91 23.2008V4.38477H118.638V23.2008H114.91ZM133.195 21.8951C132.021 23.0215 130.455 23.5848 128.497 23.5848C126.557 23.5848 124.991 23.0131 123.799 21.8696C122.625 20.7261 122.038 19.2243 122.038 17.3639V9.37675H125.765V16.9288C125.765 17.9187 126.003 18.6951 126.48 19.2583C126.973 19.8045 127.646 20.0775 128.497 20.0775C129.365 20.0775 130.037 19.8045 130.514 19.2583C131.007 18.6951 131.255 17.9187 131.255 16.9288V9.37675H134.982V17.3639C134.982 19.2413 134.386 20.7517 133.195 21.8951ZM143.276 23.5848C142.135 23.5848 141.122 23.3799 140.237 22.9704C139.369 22.5607 138.688 21.9805 138.195 21.2296C137.718 20.4787 137.48 19.6167 137.48 18.644H141.105C141.122 19.0535 141.224 19.4035 141.412 19.6936C141.616 19.9667 141.888 20.1715 142.229 20.308C142.569 20.4275 142.96 20.4872 143.403 20.4872C143.761 20.4872 144.084 20.4359 144.373 20.3335C144.662 20.2311 144.901 20.0775 145.088 19.8727C145.275 19.6509 145.369 19.3949 145.369 19.1048C145.369 18.6781 145.147 18.3624 144.705 18.1575C144.263 17.9528 143.599 17.7735 142.714 17.6199C142.152 17.5347 141.684 17.4493 141.31 17.3639C140.952 17.2787 140.518 17.1336 140.007 16.9288C139.514 16.7069 139.114 16.4595 138.807 16.1863C138.518 15.9133 138.263 15.5379 138.042 15.06C137.82 14.5821 137.71 14.0275 137.71 13.396C137.71 12.0989 138.22 11.0407 139.242 10.2215C140.263 9.40235 141.598 8.99275 143.25 8.99275C144.918 8.99275 146.254 9.41947 147.259 10.2727C148.28 11.1091 148.79 12.2183 148.79 13.6007H145.242C145.242 12.5085 144.552 11.9623 143.173 11.9623C142.594 11.9623 142.143 12.0819 141.82 12.3207C141.496 12.5597 141.335 12.884 141.335 13.2936C141.335 13.4643 141.377 13.6264 141.463 13.78C141.565 13.9165 141.675 14.0275 141.795 14.1128C141.93 14.1981 142.135 14.2835 142.407 14.3688C142.68 14.4371 142.909 14.4883 143.097 14.5223C143.284 14.5565 143.564 14.6077 143.939 14.676C144.263 14.7443 144.492 14.7955 144.629 14.8296C144.764 14.8467 144.994 14.8893 145.318 14.9576C145.641 15.0259 145.88 15.0941 146.033 15.1624C146.203 15.2136 146.424 15.2904 146.697 15.3928C146.986 15.4952 147.199 15.6061 147.335 15.7255C147.488 15.8279 147.667 15.956 147.871 16.1096C148.092 16.2632 148.262 16.4339 148.382 16.6216C148.501 16.8093 148.62 17.0141 148.739 17.2359C148.858 17.4579 148.935 17.7139 148.969 18.004C149.02 18.2941 149.046 18.6013 149.046 18.9255C149.046 20.3421 148.518 21.4771 147.463 22.3304C146.407 23.1667 145.012 23.5848 143.276 23.5848Z" fill="white"/>
</g>
<defs>
<clipPath id="clip0_415_12066">
<rect width="150" height="32" fill="white"/>
</clipPath>
</defs>
</svg>
