<svg width="150" height="32" viewBox="0 0 150 32" fill="none" xmlns="http://www.w3.org/2000/svg">
<mask id="mask0_508_10439" style="mask-type:luminance" maskUnits="userSpaceOnUse" x="0" y="0" width="32" height="32">
<path d="M-9.91821e-05 32L31.9148 32L31.9148 0L-9.91821e-05 0L-9.91821e-05 32Z" fill="white"/>
</mask>
<g mask="url(#mask0_508_10439)">
<path d="M19.02 19.3939C15.4591 19.3939 12.5725 16.4996 12.5725 12.9293V2.58586C12.5725 1.15772 13.7271 4.45704e-07 15.1515 3.20856e-07L18.8118 0C19.5131 -6.1472e-08 19.9871 0.913002 19.9871 1.61616V9.37375C19.9871 10.8019 21.1417 11.9596 22.566 11.9596H30.303C31.0042 11.9596 31.9149 12.4348 31.9149 13.138V16.8081C31.9149 18.2362 30.7602 19.3939 29.3359 19.3939H19.02Z" fill="#E90D33"/>
<path d="M13.7477 32.0004C13.0935 32.0004 12.6265 31.5757 12.3575 31.1632C12.0843 30.7441 11.9278 30.2176 11.9278 29.7377V21.9801C11.9278 20.9091 11.0618 20.0408 9.99351 20.0408H2.25661C1.77805 20.0408 1.2529 19.8839 0.834881 19.6099C0.423532 19.3402 3.77194e-07 18.872 3.19995e-07 18.216L0 14.5458C-1.55649e-07 12.7607 1.44333 11.3135 3.22373 11.3135H11.6054V13.2529C11.6054 17.1803 14.7807 20.364 18.6976 20.364H20.6319V28.768C20.6319 30.4974 19.2773 31.9096 17.574 31.9963L17.4081 32.0004H13.7477Z" fill="#E90D33"/>
<path d="M25.5318 10.4004C27.7351 10.4004 29.5212 8.60953 29.5212 6.40039C29.5212 4.19125 27.7351 2.40039 25.5318 2.40039C23.3286 2.40039 21.5425 4.19125 21.5425 6.40039C21.5425 8.60953 23.3286 10.4004 25.5318 10.4004Z" fill="#E90D33"/>
</g>
<path d="M47.6171 8.99179C49.6937 8.99179 51.4128 9.68299 52.7746 11.0654C54.1533 12.4478 54.8427 14.1886 54.8427 16.2878C54.8427 18.387 54.1533 20.1363 52.7746 21.5358C51.3958 22.9182 49.6767 23.6094 47.6171 23.6094C46.2043 23.6094 44.9363 23.2254 43.8129 22.4574V28.1918H40.0852V9.37579H42.5618L43.2001 10.6302C44.4256 9.53795 45.8979 8.99179 47.6171 8.99179ZM44.6044 19.0014C45.3192 19.7182 46.2129 20.0766 47.2852 20.0766C48.3745 20.0766 49.2767 19.7182 49.9916 19.0014C50.7065 18.2846 51.0639 17.38 51.0639 16.2878C51.0639 15.571 50.9022 14.9224 50.5788 14.3422C50.2554 13.7619 49.8043 13.3096 49.2256 12.9854C48.6639 12.6611 48.0256 12.499 47.3107 12.499C46.5958 12.499 45.949 12.6611 45.3703 12.9854C44.7915 13.3096 44.3405 13.7619 44.0171 14.3422C43.7107 14.9224 43.5575 15.571 43.5575 16.2878C43.5575 17.38 43.9065 18.2846 44.6044 19.0014ZM57.4888 23.1998V4.38379H61.2165V23.1998H57.4888ZM75.773 21.8942C74.5985 23.0206 73.0325 23.5838 71.0751 23.5838C69.1347 23.5838 67.5687 23.012 66.3773 21.8686C65.2028 20.7251 64.6156 19.2232 64.6156 17.363V9.37579H68.3432V16.9278C68.3432 17.9176 68.5815 18.6942 69.0581 19.2574C69.5518 19.8035 70.224 20.0766 71.0751 20.0766C71.9432 20.0766 72.6156 19.8035 73.0921 19.2574C73.5858 18.6942 73.8326 17.9176 73.8326 16.9278V9.37579H77.5602V17.363C77.5602 19.2403 76.9645 20.7507 75.773 21.8942ZM85.8535 23.5838C84.7125 23.5838 83.7 23.379 82.8152 22.9694C81.9471 22.5598 81.2657 21.9795 80.7726 21.2286C80.2955 20.4776 80.0577 19.6158 80.0577 18.643H83.6833C83.7 19.0526 83.8021 19.4024 83.9896 19.6926C84.1939 19.9656 84.466 20.1704 84.8067 20.307C85.1466 20.4264 85.5383 20.4862 85.9811 20.4862C86.3386 20.4862 86.6617 20.435 86.9513 20.3326C87.2402 20.2302 87.4787 20.0766 87.6662 19.8718C87.8529 19.65 87.9471 19.3939 87.9471 19.1038C87.9471 18.6771 87.7253 18.3614 87.2833 18.1566C86.8404 17.9518 86.1766 17.7726 85.2918 17.619C84.7301 17.5336 84.2617 17.4483 83.8875 17.363C83.5301 17.2776 83.096 17.1326 82.5854 16.9278C82.0915 16.7059 81.6918 16.4584 81.3854 16.1854C81.0958 15.9123 80.8404 15.5368 80.6194 15.059C80.3976 14.5811 80.2875 14.0264 80.2875 13.395C80.2875 12.0979 80.7982 11.0398 81.8194 10.2206C82.8407 9.40139 84.1763 8.99179 85.8279 8.99179C87.4955 8.99179 88.8319 9.41843 89.8365 10.2718C90.8577 11.108 91.3684 12.2174 91.3684 13.5998H87.8194C87.8194 12.5075 87.1301 11.9614 85.7513 11.9614C85.1721 11.9614 84.7213 12.0808 84.3982 12.3198C84.0742 12.5587 83.913 12.883 83.913 13.2926C83.913 13.4632 83.9553 13.6254 84.0407 13.779C84.1428 13.9156 84.2529 14.0264 84.3726 14.1118C84.5083 14.1971 84.7125 14.2824 84.9854 14.3678C85.2575 14.436 85.4873 14.4872 85.6748 14.5214C85.8615 14.5555 86.1423 14.6067 86.5173 14.675C86.8404 14.7432 87.0702 14.7944 87.2067 14.8286C87.3423 14.8456 87.5721 14.8883 87.896 14.9566C88.2192 15.0248 88.4577 15.0931 88.6109 15.1614C88.7809 15.2126 89.0019 15.2894 89.2748 15.3918C89.5636 15.4942 89.7766 15.6051 89.9131 15.7246C90.0662 15.827 90.245 15.955 90.4492 16.1086C90.6702 16.2622 90.8402 16.4328 90.9599 16.6206C91.0787 16.8083 91.1976 17.0132 91.3173 17.235C91.4362 17.4568 91.5128 17.7128 91.5471 18.003C91.5982 18.2931 91.6237 18.6003 91.6237 18.9246C91.6237 20.3411 91.0955 21.476 90.0407 22.3294C88.9851 23.1656 87.5896 23.5838 85.8535 23.5838ZM110.042 9.04299C111.472 9.04299 112.638 9.55499 113.54 10.579C114.459 11.603 114.918 12.9171 114.918 14.5214V23.1998H111.191V15.1358C111.191 13.2584 110.493 12.3198 109.097 12.3198C108.553 12.3198 108.076 12.4563 107.667 12.7294C107.276 12.9854 106.978 13.3694 106.774 13.8814C106.569 14.3934 106.467 15.0078 106.467 15.7246V23.1998H102.816V15.1358C102.816 13.2584 102.144 12.3198 100.799 12.3198C99.9487 12.3198 99.2849 12.6184 98.8077 13.2158C98.3314 13.8131 98.0928 14.6494 98.0928 15.7246V23.1998H94.3652V9.37579H96.9694L97.6588 11.091C98.1694 10.4595 98.7822 9.96459 99.4971 9.60619C100.23 9.23075 100.995 9.04299 101.795 9.04299C102.663 9.04299 103.447 9.23923 104.144 9.63179C104.842 10.0243 105.387 10.5704 105.778 11.2702C105.949 11.0312 106.127 10.8179 106.314 10.6302C106.502 10.4254 106.706 10.2462 106.927 10.0926C107.149 9.92195 107.378 9.77683 107.616 9.65739C107.855 9.52083 108.101 9.40995 108.357 9.32459C108.63 9.23923 108.902 9.17099 109.174 9.11979C109.463 9.06859 109.753 9.04299 110.042 9.04299ZM131.706 16.2366C131.706 16.595 131.68 16.962 131.629 17.3374H121.212C121.365 18.276 121.731 19.0014 122.31 19.5134C122.905 20.0083 123.663 20.2558 124.582 20.2558C125.212 20.2558 125.782 20.1192 126.293 19.8462C126.803 19.556 127.203 19.1636 127.493 18.6686H131.425C130.914 20.1704 130.046 21.3652 128.821 22.2526C127.595 23.14 126.182 23.5838 124.582 23.5838C122.54 23.5838 120.837 22.884 119.476 21.4846C118.114 20.0852 117.433 18.3528 117.433 16.2878C117.433 15.4686 117.543 14.6835 117.765 13.9326C118.003 13.1816 118.335 12.5075 118.761 11.9102C119.203 11.3128 119.714 10.8008 120.293 10.3742C120.871 9.93043 121.526 9.58915 122.259 9.35019C122.99 9.11123 123.765 8.99179 124.582 8.99179C125.961 8.99179 127.194 9.31603 128.284 9.96459C129.39 10.6131 130.233 11.492 130.812 12.6014C131.407 13.7107 131.706 14.9224 131.706 16.2366ZM124.582 12.1662C123.748 12.1662 123.042 12.3966 122.463 12.8574C121.901 13.3182 121.518 13.9582 121.314 14.7774H127.978C127.807 14.2142 127.561 13.7448 127.238 13.3694C126.914 12.9768 126.523 12.6782 126.063 12.4734C125.62 12.2686 125.126 12.1662 124.582 12.1662ZM144.495 4.38379H148.222V23.1998H145.465L145.031 22.0478C143.805 23.0888 142.368 23.6094 140.716 23.6094C139.337 23.6094 138.095 23.2936 136.988 22.6622C135.882 22.0307 135.014 21.1603 134.384 20.051C133.771 18.9246 133.465 17.6702 133.465 16.2878C133.465 14.9054 133.771 13.6595 134.384 12.5502C135.014 11.4408 135.882 10.5704 136.988 9.93899C138.095 9.30755 139.337 8.99179 140.716 8.99179C142.112 8.99179 143.371 9.36723 144.495 10.1182V4.38379ZM138.316 19.0014C139.031 19.7182 139.924 20.0766 140.997 20.0766C142.087 20.0766 142.988 19.7182 143.703 19.0014C144.418 18.2676 144.776 17.363 144.776 16.2878C144.776 15.1955 144.418 14.291 143.703 13.5742C142.988 12.8574 142.087 12.499 140.997 12.499C139.924 12.499 139.031 12.8574 138.316 13.5742C137.601 14.291 137.244 15.1955 137.244 16.2878C137.244 17.38 137.601 18.2846 138.316 19.0014Z" fill="#E90D33"/>
</svg>
