<svg width="36" height="36" viewBox="0 0 36 36" fill="none" xmlns="http://www.w3.org/2000/svg">
<path d="M24.549 9.62305C21.714 9.62305 20.5159 10.9759 18.5415 10.9759C16.5172 10.9759 14.9732 9.63289 12.5165 9.63289C10.1118 9.63289 7.54748 11.101 5.91904 13.602C3.63248 17.1289 4.02061 23.7713 7.72397 29.4301C9.04865 31.4558 10.8177 33.7276 13.138 33.7522H13.1802C15.1968 33.7522 15.7958 32.4317 18.5711 32.4162H18.6133C21.347 32.4162 21.8955 33.7444 23.9036 33.7444H23.9458C26.2661 33.7198 28.1301 31.2027 29.4548 29.1847C30.4082 27.7334 30.7626 27.005 31.4938 25.3632C26.1367 23.3298 25.2761 15.7353 30.5741 12.8237C28.9569 10.7987 26.6844 9.62586 24.542 9.62586L24.549 9.62305Z" fill="white"/>
<path d="M23.9263 2.25C22.2381 2.36466 20.2685 3.43947 19.1149 4.84278C18.0682 6.11454 17.2073 8.0011 17.5449 9.83067H17.68C19.4779 9.83067 21.318 8.74812 22.3928 7.36099C23.4282 6.04069 24.2133 4.16961 23.9263 2.25Z" fill="white"/>
</svg>
