<svg width="36" height="36" viewBox="0 0 36 36" fill="none" xmlns="http://www.w3.org/2000/svg">
<path d="M24.549 9.62402C21.714 9.62402 20.5159 10.9768 18.5415 10.9768C16.5172 10.9768 14.9732 9.63387 12.5165 9.63387C10.1118 9.63387 7.54748 11.102 5.91904 13.603C3.63248 17.1299 4.02061 23.7723 7.72397 29.4311C9.04865 31.4568 10.8177 33.7286 13.138 33.7532H13.1802C15.1968 33.7532 15.7958 32.4327 18.5711 32.4172H18.6133C21.347 32.4172 21.8955 33.7454 23.9036 33.7454H23.9458C26.2661 33.7208 28.1301 31.2036 29.4548 29.1857C30.4082 27.7344 30.7626 27.006 31.4938 25.3642C26.1367 23.3307 25.2761 15.7363 30.5741 12.8246C28.9569 10.7996 26.6844 9.62684 24.542 9.62684L24.549 9.62402Z" fill="#000D24"/>
<path d="M23.9263 2.25C22.2381 2.36466 20.2685 3.43947 19.1149 4.84278C18.0682 6.11454 17.2073 8.0011 17.5449 9.83067H17.68C19.4779 9.83067 21.318 8.74812 22.3928 7.36099C23.4282 6.04069 24.2133 4.16961 23.9263 2.25Z" fill="#000D24"/>
</svg>
