<svg width="24" height="24" viewBox="0 0 24 24" fill="none" xmlns="http://www.w3.org/2000/svg">
<path d="M2.8323 18.2422C2.8323 18.2452 2.8323 18.2508 2.82886 18.2586C2.83015 18.2534 2.83101 18.2478 2.8323 18.2422Z" fill="#E90D33"/>
<path d="M20.6197 19.0125C20.4654 19.0092 20.313 18.9774 20.1702 18.9188L17.5086 17.9752L17.4889 17.9672C17.4309 17.943 17.3685 17.9309 17.3056 17.9316C17.2477 17.9316 17.1902 17.9421 17.136 17.9625C17.0713 17.9869 16.4886 18.2058 15.8774 18.3736C15.546 18.4645 14.3924 18.7613 13.4666 18.7613C11.1003 18.7613 8.88783 17.8519 7.23736 16.2005C6.43107 15.3991 5.79173 14.4458 5.35635 13.3957C4.92098 12.3456 4.69821 11.2196 4.70095 10.0828C4.70093 9.4905 4.76474 8.89991 4.89127 8.32126C5.3033 6.41719 6.39455 4.68516 7.96392 3.44626C9.57378 2.18346 11.5612 1.49805 13.6072 1.5C16.0545 1.5 18.335 2.4375 20.0291 4.13344C21.6303 5.73985 22.5078 7.85204 22.5008 10.0805C22.4994 11.7364 22.005 13.3543 21.0805 14.7281L21.0716 14.7413L21.0369 14.7881C21.0289 14.7989 21.021 14.8092 21.0135 14.82L21.0064 14.8327C20.9878 14.8644 20.9709 14.8971 20.9558 14.9306L21.6936 17.5528C21.7262 17.661 21.7439 17.7731 21.7461 17.8861C21.7463 18.0341 21.7173 18.1806 21.6607 18.3174C21.6042 18.4541 21.5212 18.5784 21.4166 18.683C21.312 18.7876 21.1877 18.8706 21.051 18.9271C20.9142 18.9837 20.7677 19.0127 20.6197 19.0125Z" fill="#E90D33"/>
<path d="M14.0559 19.94C14.0075 19.8458 13.9394 19.7632 13.8561 19.6976C13.7729 19.6321 13.6765 19.5853 13.5736 19.5603C13.3027 19.4886 12.9867 19.5008 12.7453 19.483C10.4659 19.3245 8.32099 18.3463 6.70688 16.7291C5.27192 15.3022 4.33933 13.4477 4.04954 11.4449C3.98391 10.9883 3.98391 10.8749 3.98391 10.8749C3.98388 10.7225 3.93747 10.5738 3.85085 10.4485C3.76423 10.3232 3.64151 10.2273 3.49901 10.1734C3.35651 10.1196 3.201 10.1104 3.05316 10.1471C2.90532 10.1838 2.77217 10.2647 2.67141 10.3789C2.67141 10.3789 2.30204 10.7811 2.12766 11.1847C1.6386 12.3115 1.43004 13.5401 1.51985 14.7652C1.60965 15.9903 1.99514 17.1753 2.64329 18.2188C2.76516 18.4217 2.76516 18.5155 2.73797 18.7264C2.61 19.3878 2.38594 20.5546 2.26922 21.1597C2.23058 21.356 2.24495 21.559 2.31087 21.7478C2.37678 21.9367 2.49185 22.1045 2.64422 22.2341L2.66579 22.2524C2.86735 22.4125 3.11713 22.4997 3.37454 22.4999C3.51932 22.5 3.66269 22.4715 3.79641 22.416L6.30469 21.448C6.39105 21.4152 6.48646 21.4152 6.57282 21.448C7.56047 21.8155 8.58844 22.0105 9.56251 22.0105C10.7762 22.0116 11.9751 21.745 13.0739 21.2296C13.3299 21.1096 13.7302 20.9792 13.9645 20.7083C14.0532 20.6032 14.1092 20.4744 14.1254 20.3379C14.1417 20.2013 14.1175 20.063 14.0559 19.94Z" fill="#E90D33"/>
</svg>
