<svg width="60" height="60" viewBox="0 0 60 60" fill="none" xmlns="http://www.w3.org/2000/svg">
<path d="M53.7278 36.1775C53.7294 38.1775 52.0808 39.7502 49.9808 39.752C47.8808 39.7537 46.2294 38.1836 46.2278 36.1836C46.2262 34.1836 49.9725 29.752 49.9725 29.752C49.9725 29.752 53.7263 34.3203 53.7278 36.1775Z" fill="#E90D33"/>
<path fill-rule="evenodd" clip-rule="evenodd" d="M30.1569 21.9972L52.3058 21.979C53.7749 21.9778 54.9669 23.1678 54.968 24.6369C54.9693 26.106 53.7793 27.298 52.3101 27.2993H52.3038C52.4111 27.0899 52.4699 26.8625 52.4696 26.6248C52.4689 25.5893 51.3489 24.7508 49.9681 24.7519C48.5874 24.753 47.4689 25.5934 47.4696 26.6289C47.4699 26.8667 47.529 27.0939 47.6368 27.303L31.3591 27.3164L31.3603 28.6464L39.9714 28.6394C41.352 28.6383 42.4723 29.7567 42.4734 31.1373L42.4736 31.4576C42.4748 32.8383 41.3564 33.9584 39.9756 33.9595L31.3646 33.9667L31.3656 35.2967L38.5879 35.2908C39.9686 35.2897 41.0888 36.408 41.0899 37.7888L41.0903 38.1089C41.0914 39.4897 39.973 40.6098 38.5923 40.611L28.5923 40.6192L28.5934 41.9492L33.7323 41.945C35.1129 41.9439 36.2331 43.0623 36.2343 44.4429L36.2345 44.7632C36.2356 46.1439 35.1173 47.264 33.7366 47.2652L24.431 47.2728L19.3069 47.277C11.398 47.2835 4.98135 40.8774 4.97486 32.9685C4.9701 27.1503 8.48606 21.9075 13.8708 19.7037L29.9741 13.1127C31.1911 12.6145 32.591 13.0024 33.3781 14.0559C34.4785 15.5287 33.9391 17.641 32.2675 18.4062L29.6358 19.6105C28.4144 20.1694 28.8138 21.9983 30.1569 21.9972Z" fill="#E90D33"/>
</svg>
