<svg width="60" height="60" viewBox="0 0 60 60" fill="none" xmlns="http://www.w3.org/2000/svg">
<path fill-rule="evenodd" clip-rule="evenodd" d="M21.9324 19.3492C20.1376 18.6485 18.1617 18.5597 16.3114 19.0967C14.461 19.6337 12.8395 20.7664 11.6987 22.3191C10.5579 23.8717 9.96145 25.7576 10.0019 27.6839C10.0424 29.6101 10.7176 31.4692 11.9226 32.9726C13.1276 34.476 14.7952 35.5396 16.6665 35.9984C18.5379 36.4571 20.5082 36.2854 22.272 35.5099C24.0357 34.7344 25.4942 33.3984 26.4211 31.7091C27.3479 30.02 27.6914 28.0722 27.398 26.1679C27.2929 25.4856 27.7609 24.8472 28.4431 24.7422C29.1255 24.6371 29.7637 25.105 29.8689 25.7874C30.246 28.2356 29.8045 30.74 28.6129 32.9117C27.4211 35.0836 25.546 36.8012 23.2784 37.7984C21.0106 38.7955 18.4772 39.0162 16.0712 38.4265C13.6652 37.8366 11.5213 36.4691 9.97194 34.5362C8.42259 32.6034 7.55454 30.2131 7.50249 27.7364C7.45044 25.2597 8.2173 22.8351 9.68409 20.8389C11.1509 18.8425 13.2355 17.3861 15.6146 16.6957C17.9936 16.0054 20.5341 16.1195 22.8416 17.0205C23.4847 17.2716 23.8025 17.9964 23.5514 18.6395C23.3004 19.2826 22.5755 19.6004 21.9324 19.3492Z" fill="#E90D33"/>
<path fill-rule="evenodd" clip-rule="evenodd" d="M17.5 48.75V38.75C17.5 38.0596 18.0596 37.5 18.75 37.5C19.4404 37.5 20 38.0596 20 38.75V48.75C20 49.4404 19.4404 50 18.75 50C18.0596 50 17.5 49.4404 17.5 48.75Z" fill="#E90D33"/>
<path fill-rule="evenodd" clip-rule="evenodd" d="M13.75 42.5C13.75 41.8096 14.3096 41.25 15 41.25H22.5C23.1904 41.25 23.75 41.8096 23.75 42.5C23.75 43.1904 23.1904 43.75 22.5 43.75H15C14.3096 43.75 13.75 43.1904 13.75 42.5Z" fill="#E90D33"/>
<path fill-rule="evenodd" clip-rule="evenodd" d="M36.127 19.0791C34.2728 18.5556 32.2975 18.6589 30.508 19.3727C28.7184 20.0867 27.2145 21.3712 26.2295 23.0272C25.2446 24.6832 24.8339 26.618 25.061 28.5314C25.1424 29.2169 24.6526 29.8385 23.967 29.9199C23.2815 30.0012 22.6598 29.5115 22.5784 28.826C22.2865 26.366 22.8146 23.8785 24.0809 21.7494C25.3471 19.6202 27.2808 17.9686 29.5816 17.0507C31.8826 16.1329 34.4221 16.0001 36.8061 16.6731C39.1903 17.346 41.2855 18.7871 42.7669 20.7726C44.2483 22.7581 45.0329 25.177 44.999 27.654C44.965 30.131 44.1145 32.5275 42.5794 34.4717C41.0443 36.4159 38.9103 37.7991 36.5088 38.4065C34.1071 39.014 31.5723 38.8117 29.2973 37.8314C28.6633 37.5581 28.3709 36.8226 28.6441 36.1886C28.9174 35.5546 29.6528 35.2622 30.2868 35.5355C32.0561 36.2981 34.0278 36.4554 35.8956 35.9829C37.7636 35.5104 39.4233 34.4346 40.6173 32.9225C41.8113 31.4102 42.4729 29.5462 42.4991 27.6197C42.5255 25.6932 41.9153 23.8119 40.7631 22.2676C39.611 20.7232 37.9813 19.6025 36.127 19.0791Z" fill="#E90D33"/>
<path fill-rule="evenodd" clip-rule="evenodd" d="M40.9911 21.5089C40.503 21.0207 40.503 20.2292 40.9911 19.7411L50.3661 10.3661C50.8542 9.87796 51.6457 9.87796 52.1338 10.3661C52.622 10.8543 52.622 11.6457 52.1338 12.1339L42.7588 21.5089C42.2707 21.997 41.4792 21.997 40.9911 21.5089Z" fill="#E90D33"/>
<path fill-rule="evenodd" clip-rule="evenodd" d="M51.1555 18.7503C50.4651 18.7416 49.9126 18.175 49.9214 17.4846L49.984 12.5165L45.0157 12.579C44.3255 12.5878 43.7587 12.0352 43.7501 11.3449C43.7414 10.6546 44.294 10.0879 44.9842 10.0792L52.516 9.98438L52.4211 17.5161C52.4124 18.2065 51.8457 18.759 51.1555 18.7503Z" fill="#E90D33"/>
</svg>
