<svg width="60" height="60" viewBox="0 0 60 60" fill="none" xmlns="http://www.w3.org/2000/svg">
<path d="M8.52044 15.9054C7.51974 16.816 7.20595 17.9266 7.81996 18.911C8.61516 20.1858 9.52176 21.2621 10.3246 22.0948C9.63505 22.1505 9.02475 22.3904 8.5709 22.8278C8.39096 23.0013 8.24452 23.1971 8.13056 23.411C7.33624 22.546 6.47476 21.478 5.69879 20.2341C4.19675 17.8261 5.34444 15.4152 6.83786 14.0564C7.5977 13.3649 8.5373 12.8396 9.49462 12.6169C10.4403 12.3969 11.5732 12.4434 12.4787 13.1693C14.4529 14.7518 15.46 14.9614 16.126 15.0196C16.2506 15.0305 16.3939 15.0335 16.5535 15.037C17.2589 15.0523 18.2837 15.0744 19.4252 15.8063L18.0757 17.9108C17.5645 17.583 17.3234 17.5753 16.7675 17.5576C16.5444 17.5505 16.2706 17.5418 15.9082 17.5101C14.6346 17.3988 13.173 16.9299 10.915 15.1199C10.8132 15.0383 10.5608 14.9356 10.0612 15.0519C9.57327 15.1654 9.00766 15.462 8.52044 15.9054Z" fill="#E90D33"/>
<path fill-rule="evenodd" clip-rule="evenodd" d="M16.1189 25.1788C18.2193 27.115 18.8052 29.761 17.4273 31.089C16.0495 32.4168 13.2298 31.924 11.1294 29.9878C9.02893 28.0518 8.44311 25.4058 9.82094 24.0778C11.1988 22.7498 14.0184 23.2428 16.1189 25.1788ZM14.3189 26.9138C15.055 27.5923 15.4398 28.3221 15.5589 28.8603C15.625 29.1588 15.6013 29.3173 15.5799 29.3861C15.5075 29.4077 15.3398 29.4336 15.0218 29.378C14.4482 29.2777 13.6655 28.9315 12.9294 28.253C12.1933 27.5745 11.8085 26.8447 11.6894 26.3065C11.6233 26.008 11.647 25.8493 11.6684 25.7807C11.7408 25.759 11.9085 25.7331 12.2265 25.7887C12.8002 25.889 13.5828 26.2352 14.3189 26.9138ZM15.5614 29.4271C15.5608 29.4281 15.5607 29.4286 15.5608 29.4287C15.5612 29.429 15.5637 29.4256 15.5674 29.4182C15.5664 29.4195 15.5655 29.4206 15.5648 29.4216C15.5645 29.422 15.565 29.4213 15.5648 29.4216C15.5635 29.4236 15.5619 29.4261 15.5614 29.4271ZM15.6137 29.3736C15.6207 29.3686 15.6245 29.3667 15.6247 29.3671C15.6249 29.3675 15.6215 29.37 15.6137 29.3736ZM11.6838 25.7446C11.6867 25.7405 11.6878 25.7382 11.6875 25.7381C11.6872 25.7378 11.6846 25.7412 11.6809 25.7486C11.682 25.7471 11.683 25.7458 11.6838 25.7446ZM11.6346 25.7932C11.6277 25.7982 11.6238 25.8 11.6236 25.7997C11.6233 25.7993 11.6268 25.7968 11.6346 25.7932Z" fill="#E90D33"/>
<path d="M52.18 18.911C52.794 17.9266 52.4802 16.816 51.4795 15.9054C50.9923 15.462 50.4267 15.1654 49.9387 15.0519C49.4391 14.9356 49.1867 15.0383 49.085 15.1199C46.827 16.9299 45.3653 17.3988 44.0917 17.5101C43.7293 17.5418 43.4556 17.5505 43.2325 17.5576C42.6766 17.5753 42.4355 17.583 41.9242 17.9108L40.5747 15.8063C41.7162 15.0744 42.7411 15.0523 43.4465 15.037C43.6061 15.0335 43.7493 15.0305 43.874 15.0196C44.54 14.9614 45.5471 14.7518 47.5213 13.1693C48.4267 12.4434 49.5597 12.3969 50.5053 12.6169C51.4627 12.8396 52.4022 13.3649 53.1621 14.0564C54.6555 15.4152 55.8032 17.8261 54.3012 20.2341C53.5088 21.5043 52.6275 22.5909 51.8193 23.4653C51.7017 23.2303 51.546 23.0158 51.351 22.8278C50.913 22.4056 50.3292 22.1675 49.6691 22.1013C50.4735 21.2678 51.3827 20.1891 52.18 18.911Z" fill="#E90D33"/>
<path fill-rule="evenodd" clip-rule="evenodd" d="M43.8032 25.1788C41.7028 27.115 41.1169 29.761 42.4948 31.089C43.8725 32.4168 46.6923 31.924 48.7927 29.9878C50.8932 28.0518 51.4789 25.4058 50.1012 24.0778C48.7233 22.7498 45.9037 23.2428 43.8032 25.1788ZM45.6032 26.9138C44.867 27.5923 44.4823 28.3221 44.3632 28.8603C44.297 29.1588 44.3208 29.3173 44.3422 29.3861C44.4145 29.4077 44.5823 29.4336 44.9003 29.378C45.4739 29.2777 46.2565 28.9315 46.9927 28.253C47.7288 27.5745 48.1135 26.8447 48.2327 26.3065C48.2988 26.008 48.2752 25.8493 48.2537 25.7807C48.1813 25.759 48.0137 25.7331 47.6955 25.7887C47.1219 25.889 46.3393 26.2352 45.6032 26.9138ZM44.3573 29.4216C44.3604 29.4261 44.3615 29.4286 44.3613 29.4287C44.3609 29.429 44.3584 29.4256 44.3547 29.4182C44.3557 29.4195 44.3565 29.4206 44.3573 29.4216ZM44.3029 29.3698L44.3084 29.3736L44.3047 29.3717L44.3002 29.3692C44.2982 29.3681 44.2973 29.3672 44.2974 29.3671M48.2345 25.7381C48.2342 25.7382 48.236 25.742 48.2412 25.7486C48.2375 25.7412 48.2349 25.7378 48.2345 25.7381ZM48.2875 25.7932C48.2944 25.7982 48.2983 25.8 48.2985 25.7997C48.2988 25.7993 48.2953 25.7968 48.2875 25.7932Z" fill="#E90D33"/>
<path fill-rule="evenodd" clip-rule="evenodd" d="M22.5146 15.5929C24.1693 14.3974 26.6221 13.75 30.0126 13.75C33.3851 13.75 35.8365 14.34 37.4903 15.4549C39.2148 16.6175 39.9426 18.2639 39.9966 19.9851C40.0486 21.6394 39.4843 23.3234 38.743 24.761C37.9953 26.2112 37.0106 27.5215 36.0838 28.4529C35.5098 29.0298 35.0959 29.987 34.8418 31.376C34.5908 32.7482 34.5235 34.374 34.5074 36.1364C34.5024 36.6891 34.5024 37.2595 34.5025 37.8361C34.5028 39.0522 34.5029 40.2979 34.455 41.4634C34.3843 43.1861 34.206 44.9014 33.7129 46.3372C33.6198 46.6081 33.4253 47.0164 32.9935 47.28C32.5089 47.5761 32.0124 47.5219 31.6883 47.4125C31.3939 47.3133 31.159 47.1462 31.0096 47.0286C30.8476 46.901 30.695 46.7572 30.5676 46.6326C30.4645 46.5316 30.3766 46.4431 30.2974 46.363C30.1821 46.2469 30.0849 46.1487 29.9848 46.0572C29.8549 46.1597 29.739 46.2615 29.6033 46.3807C29.4985 46.4726 29.3821 46.5749 29.2384 46.6958C28.9929 46.9024 28.5378 47.2811 28.0228 47.4294C27.7191 47.5168 27.2606 47.5639 26.7963 47.3181C26.344 47.0789 26.1139 46.6814 25.9971 46.3705C25.4651 44.9536 25.1888 43.2025 25.0155 41.4181C24.8746 39.9667 24.7961 38.4186 24.7206 36.9285L24.7205 36.9256C24.7028 36.5753 24.6851 36.2274 24.6669 35.8855C24.5698 34.0595 24.4551 32.3854 24.2183 31.0206C23.9696 29.5889 23.6293 28.7905 23.2934 28.4529C22.5348 27.6906 21.6898 26.4548 21.051 25.0498C20.4123 23.6449 19.9231 21.9471 20.01 20.2659C20.0995 18.536 20.806 16.8273 22.5146 15.5929ZM29.7508 45.8679C29.7468 45.8659 29.7461 45.8652 29.7493 45.867L29.7508 45.8679Z" fill="#E90D33"/>
</svg>
