<svg width="60" height="60" viewBox="0 0 60 60" fill="none" xmlns="http://www.w3.org/2000/svg">
<path d="M18.7499 47.5005V35.7391C17.3841 34.3311 14.9422 31.2138 14.0703 27.1055C18.1734 27.6648 23.7859 28.0061 29.9554 28.0061C35.4966 28.0061 40.5883 27.7308 44.5408 27.2695C45.1049 28.6802 45.6462 30.0265 46.1081 31.1721C46.7717 32.818 45.5594 34.6125 43.7848 34.6125H43.0926V38.5431C43.0926 39.9238 41.9733 41.0431 40.5926 41.0431H34.9999V47.5005H18.7499Z" fill="#E90D33"/>
<path d="M28.177 12.5C18.0374 12.5 14.561 18.429 13.8815 22.5513C12.2292 22.3156 10.8495 22.0436 9.81206 21.7449C9.77138 21.7333 9.73121 21.7215 9.69159 21.7096C8.38269 21.3201 7.65259 20.8864 7.65259 20.4291C7.65259 19.972 8.38269 19.5383 9.69159 19.1488C9.73121 19.1369 9.77138 19.1251 9.81206 19.1134C10.6091 18.884 11.6081 18.6702 12.7776 18.4766C13.2561 17.6336 13.9584 16.6683 14.7096 15.675C14.4148 15.7116 14.1265 15.7491 13.845 15.7878C11.7736 16.0721 9.9705 16.4259 8.63361 16.8596C7.98238 17.071 7.29133 17.3481 6.7131 17.736C6.24696 18.0486 5.15259 18.9075 5.15259 20.4291C5.15259 21.9509 6.24696 22.8096 6.7131 23.1224C7.29133 23.5101 7.98238 23.7874 8.63361 23.9986C9.9705 24.4325 11.7736 24.7863 13.845 25.0705C18.025 25.6442 23.7198 25.9904 29.9556 25.9904C36.1915 25.9904 41.8861 25.6442 46.0661 25.0705C48.1376 24.7863 49.9408 24.4325 51.2776 23.9986C51.9289 23.7874 52.6199 23.5101 53.1981 23.1224C53.6642 22.8096 54.7586 21.9509 54.7586 20.4291C54.7586 18.9075 53.6642 18.0486 53.1981 17.736C52.6199 17.3481 51.9289 17.071 51.2776 16.8596C50.2596 16.5294 48.9712 16.2454 47.5 16.0032V12.5L42.5 17.5L47.5 21.875V18.5389C48.5127 18.7158 49.3866 18.9082 50.0991 19.1134C50.1399 19.1251 50.18 19.1369 50.2196 19.1488C51.5285 19.5383 52.2586 19.972 52.2586 20.4291C52.2586 20.8864 51.5285 21.3201 50.2196 21.7096C50.18 21.7215 50.1399 21.7333 50.0991 21.7449C48.4465 22.2208 45.9254 22.6287 42.8172 22.9304C42.1807 21.3152 41.5902 19.7977 41.1324 18.5866C40.7921 17.6867 40.1331 17.0859 39.3047 16.3306C39.2103 16.2445 39.1136 16.1564 39.015 16.0655C36.7108 13.9444 34.086 12.5 28.177 12.5Z" fill="#E90D33"/>
</svg>
