<svg width="60" height="60" viewBox="0 0 60 60" fill="none" xmlns="http://www.w3.org/2000/svg">
<path d="M12.1125 21.7583C11.0788 21.4309 9.68227 21.2708 7.87065 21.2519C7.69377 21.2501 7.57145 21.0714 7.63715 20.9071L9.9647 15.0882C9.98745 15.0314 10.0282 14.9852 10.0841 14.9603C11.5246 14.3197 14.5196 14.8916 17.0605 16.5502L17.7404 15.0435C17.7767 14.9631 17.7679 14.8696 17.7173 14.7973L14.8696 10.7304C14.7904 10.6172 14.8179 10.4614 14.931 10.3822L19.6267 7.0942C19.7398 7.01503 19.8957 7.0425 19.9749 7.1556L22.8015 11.1924C22.8629 11.2801 22.9734 11.319 23.0762 11.289L24.6406 10.8331L24.6636 10.3569V5.25C24.6636 5.11192 24.7755 5 24.9136 5H30.6434C30.7816 5 30.8934 5.11192 30.8934 5.25V10.1487C30.8934 10.2694 30.9796 10.3728 31.0984 10.3946L32.8126 10.7098C29.6771 12.4323 26.8839 15.1846 25.1664 19.4451C23.1894 19.1867 20.934 19.2333 18.3529 19.7925C16.5547 20.1821 14.2226 20.7116 12.1125 21.7583Z" fill="#E90D33"/>
<path d="M50.0001 11.875H43.7498C38.2516 11.875 31.8288 13.6925 28.8608 20.3417C30.6853 20.9955 32.1971 21.8562 33.4636 22.6256C34.2711 21.0682 35.3726 19.4974 36.9588 18.4399C38.2473 17.5809 39.9558 17.1407 41.6096 16.9122C43.3086 16.6774 45.1633 16.6389 46.9003 16.7208C47.9786 16.7717 49.0326 16.87 50.0001 17.0032V11.875Z" fill="#E90D33"/>
<path d="M44.8479 20.4346C46.2597 20.9176 47.4219 21.7946 48.2812 23.0213C49.5422 24.8213 49.9517 27.093 49.9957 29.2268C50.0842 33.518 48.7119 38.5588 47.2817 42.1705C45.6504 46.2893 42.4177 49.4628 39.2209 51.58C36.0929 53.6518 32.5567 55 29.9939 55C27.4259 55 24.5872 53.7718 22.1827 52.281C19.7075 50.7468 17.306 48.694 15.5847 46.5773C13.8043 44.388 11.315 39.642 10.381 35.0273C9.99391 33.115 9.83094 31.0235 10.2324 29.0578C10.7197 27.2908 11.8809 26.1323 13.4684 25.278C15.1598 24.3678 17.1958 23.8802 19.1468 23.4575C25.1862 22.149 28.8299 24.1904 31.8169 26.0158C30.9474 27.8918 30.4417 29.824 30.1854 31.6183C28.8517 31.4635 27.0432 31.599 25.2722 32.5383C25.1669 32.4813 25.0549 32.432 24.9374 32.3923L20.387 30.853L19.1853 34.4053L22.1459 35.4068L20.8338 38.9093L24.3454 40.225L25.5459 37.0203L25.9647 36.6233C27.4104 35.2523 29.1434 35.2168 29.9834 35.3738C30.0067 35.9838 30.0577 36.5558 30.1314 37.0783C30.2632 38.0118 30.4834 38.9098 30.8227 39.5885L31.1267 40.1963L30.4354 46.6355L34.1639 47.0358L34.6977 42.0645L39.6689 42.5983L40.0694 38.8695L34.3489 38.2555L34.1769 37.9115C34.0994 37.7568 33.9522 37.3165 33.8447 36.5545C33.7424 35.829 33.6912 34.9183 33.7354 33.8938C33.7754 32.971 33.8919 31.9783 34.1079 30.9643C34.1334 30.9215 34.1577 30.8775 34.1802 30.832C34.5342 30.117 34.8569 29.2195 35.1609 28.3683L35.2194 28.205C35.5194 27.3645 35.8257 26.5063 36.1849 25.6573L36.2127 25.592L36.2404 25.5365L36.2369 25.5348C37.0109 23.7347 37.8984 22.3204 39.0389 21.5601C39.6254 21.169 40.6672 20.828 42.1227 20.6269C42.9747 20.5092 43.9007 20.4481 44.8479 20.4346Z" fill="#E90D33"/>
</svg>
