<svg width="60" height="60" viewBox="0 0 60 60" fill="none" xmlns="http://www.w3.org/2000/svg">
<path fill-rule="evenodd" clip-rule="evenodd" d="M7.5 11.25C7.5 9.17894 9.17894 7.5 11.25 7.5H48.75C50.8211 7.5 52.5 9.17894 52.5 11.25V48.75C52.5 50.8211 50.8211 52.5 48.75 52.5H48.7441V47.271C48.7924 45.863 48.5435 44.46 48.0117 43.1431C47.48 41.8264 46.676 40.622 45.6462 39.5998C44.6166 38.5775 43.3818 37.7579 42.0131 37.188C41.3374 36.9066 40.6357 36.689 39.9184 36.5372C39.1829 36.3816 38.4308 36.2952 37.6734 36.2804H36.0714V34.8013H36.741C37.0571 34.8013 37.3698 34.7681 37.6734 34.704L37.7045 34.6972C38.3271 34.561 38.9117 34.2936 39.4127 33.9131C39.5265 33.8266 39.636 33.7343 39.7407 33.6364C40.5379 32.8903 40.9889 31.8774 40.9953 30.8191V28.2024C40.9953 28.311 41.6836 28.2467 42.0139 28.216C42.0987 28.2081 42.1599 28.2024 42.1796 28.2024C42.4741 28.1579 42.7407 28.0124 42.9281 27.7939C43.1152 27.5759 43.2103 27.3005 43.195 27.0205L43.1949 27.0191L43.1934 27.0106C43.1214 26.5914 42.9749 26.1865 42.7598 25.8131L42.1796 24.4251C41.7687 23.4694 41.3579 22.5136 40.9711 21.5353C40.9711 21.5353 40.7294 19.2598 40.5117 18.486C39.8375 16.405 38.4751 14.5807 36.623 13.2792C34.7709 11.9778 32.5257 11.2668 30.2146 11.25C27.9781 11.2462 25.7961 11.9002 23.9738 13.1208C22.1514 14.3413 20.7795 16.0671 20.0499 18.0574C19.3204 20.0476 19.2695 22.2027 19.9045 24.2215C20.5394 26.2402 21.8285 28.0219 23.5915 29.3174V36.2804H21.5886C18.8996 36.2871 16.3175 37.277 14.3883 39.0425C12.4459 40.82 11.3194 43.2425 11.25 45.7919V52.5C9.17894 52.5 7.5 50.8211 7.5 48.75V11.25ZM46.2441 47.271V52.5H31.25V43.75C31.25 43.0596 30.6904 42.5 30 42.5C29.3096 42.5 28.75 43.0596 28.75 43.75V52.5H13.75V45.8286C13.8086 43.9924 14.6238 42.2159 16.076 40.8869C17.5415 39.5459 19.5356 38.7751 21.6376 38.7804H23.5915C24.9722 38.7804 26.0915 37.661 26.0915 36.2804V29.3174C26.0915 28.5219 25.7129 27.7739 25.0719 27.3027C23.7215 26.3106 22.7591 24.9653 22.2892 23.4714C21.8201 21.9799 21.8571 20.391 22.3973 18.9179C22.9381 17.4423 23.9655 16.1351 25.3649 15.1979C26.7641 14.2609 28.4558 13.7484 30.2034 13.75C32.0153 13.7646 33.7605 14.3232 35.1856 15.3247C36.5931 16.3139 37.6073 17.6761 38.1147 19.1995C38.1674 19.413 38.2565 19.9598 38.3444 20.6271C38.386 20.9432 38.4214 21.2381 38.4465 21.4547C38.4589 21.5626 38.4688 21.6503 38.4754 21.7103L38.4829 21.7784L38.485 21.7987C38.5089 22.0234 38.5631 22.2443 38.6461 22.4541C39.0465 23.4673 39.4697 24.4516 39.8764 25.3973L39.8779 25.4009L40.0768 25.8765C39.1505 26.2426 38.4953 27.146 38.4953 28.2024V30.8096C38.4916 31.1555 38.3445 31.5189 38.0322 31.8111C37.7132 32.1097 37.2514 32.3013 36.741 32.3013H36.0714C34.6908 32.3013 33.5714 33.4206 33.5714 34.8013V36.2804C33.5714 37.661 34.6908 38.7804 36.0714 38.7804H37.6475C38.8254 38.8064 39.9827 39.0506 41.0522 39.496C42.1286 39.9441 43.0901 40.5849 43.885 41.374C44.6795 42.1628 45.2915 43.0836 45.6936 44.0793C46.0955 45.0745 46.2817 46.1296 46.2456 47.1852C46.2446 47.2137 46.2441 47.2424 46.2441 47.271ZM28.75 41.25C29.4404 41.25 30 39.8509 30 38.125C30 39.8509 30.5596 41.25 31.25 41.25C31.9404 41.25 32.5 39.8509 32.5 38.125C32.5 36.3991 31.9404 35 31.25 35C30.5596 35 30 36.3991 30 38.125C30 36.3991 29.4404 35 28.75 35C28.0596 35 27.5 36.3991 27.5 38.125C27.5 39.8509 28.0596 41.25 28.75 41.25Z" fill="#E90D33"/>
</svg>
