<svg width="24" height="24" viewBox="0 0 24 24" fill="none" xmlns="http://www.w3.org/2000/svg">
<path d="M20.8197 1.5H3.29364C2.33599 1.5 1.49927 2.18906 1.49927 3.13547V20.7005C1.49927 21.652 2.33599 22.5 3.29364 22.5H20.8146C21.7774 22.5 22.4993 21.6464 22.4993 20.7005V3.13547C22.5049 2.18906 21.7774 1.5 20.8197 1.5ZM8.0088 17.5003C8.0088 18.3311 7.33534 19.0045 6.50458 19.0045C5.67382 19.0045 5.00036 18.3311 5.00036 17.5003V11.1548C5.00036 10.3241 5.67382 9.65063 6.50458 9.65063C7.33534 9.65063 8.0088 10.3241 8.0088 11.1548V17.5003ZM6.60864 8.22844H6.58708C5.62427 8.22844 5.00083 7.51172 5.00083 6.61453C5.00083 5.70094 5.64067 5.00109 6.62505 5.00109C7.60942 5.00109 8.21177 5.69578 8.23333 6.61453C8.23286 7.51172 7.60942 8.22844 6.60864 8.22844ZM19.0039 17.5004C19.0039 18.3311 18.3304 19.0045 17.4996 19.0045C16.6688 19.0045 15.9954 18.331 15.9954 17.5002V13.89C15.9954 12.6647 15.5575 11.8275 14.4691 11.8275C13.6375 11.8275 13.1454 12.39 12.9265 12.938C12.8444 13.1348 12.8224 13.403 12.8224 13.6767V17.5003C12.8224 18.3311 12.1489 19.0045 11.3182 19.0045C10.4874 19.0045 9.81395 18.3311 9.81395 17.5003V11.1548C9.81395 10.3241 10.4874 9.65063 11.3182 9.65063H12.5098C12.6824 9.65063 12.8224 9.79059 12.8224 9.96324C12.8224 10.2686 13.2318 10.4028 13.4558 10.1952C13.9028 9.78105 14.5425 9.43172 15.5355 9.43172C17.5104 9.43172 19.0043 10.7334 19.0043 13.5398L19.0039 17.5004Z" fill="#E90D33"/>
</svg>
