<svg width="60" height="60" viewBox="0 0 60 60" fill="none" xmlns="http://www.w3.org/2000/svg">
<path fill-rule="evenodd" clip-rule="evenodd" d="M28.75 25.625V7.50016C28.75 7.50005 28.75 7.5 30 7.5C31.25 7.5 31.25 7.50005 31.25 7.50016V25.625C31.25 27.3721 31.9551 28.0526 32.5049 28.3734C32.5662 28.4091 32.628 28.4416 32.6895 28.4711C32.6882 28.3204 32.6865 28.1632 32.6847 28.0004C32.6375 23.5895 32.5455 15 39.3441 15C48.6574 15 55.3097 47.5081 51.3184 50.8252C47.3269 54.1424 39.3441 52.1521 35.3526 48.1715C32.1301 44.9578 32.409 37.4482 32.6091 32.0575C32.6214 31.7288 32.6332 31.4079 32.6441 31.0964C32.2375 30.9953 31.7449 30.8244 31.2452 30.5329C30.7997 30.273 30.3719 29.9303 30 29.4897C29.6281 29.9303 29.2002 30.273 28.7547 30.5329C28.2551 30.8244 27.7625 30.9953 27.356 31.0964C27.3667 31.4079 27.3786 31.7288 27.3909 32.0575C27.591 37.4481 27.8699 44.9578 24.6474 48.1715C20.6559 52.1521 12.6731 54.1424 8.6817 50.8252C4.69027 47.5081 11.3427 15 20.6559 15C27.4545 15 27.3625 23.5896 27.3152 28.0004C27.3135 28.1632 27.3117 28.3204 27.3105 28.4711C27.372 28.4416 27.4337 28.4091 27.4951 28.3734C28.0449 28.0526 28.75 27.3721 28.75 25.625ZM40 23.75C41.3807 23.75 42.5 22.6307 42.5 21.25C42.5 19.8693 41.3807 18.75 40 18.75C38.6192 18.75 37.5 19.8693 37.5 21.25C37.5 22.6307 38.6192 23.75 40 23.75ZM42.5 37.5C42.5 38.8808 41.3807 40 40 40C38.6192 40 37.5 38.8808 37.5 37.5C37.5 36.1192 38.6192 35 40 35C41.3807 35 42.5 36.1192 42.5 37.5ZM46.25 36.25C47.6307 36.25 48.75 35.1308 48.75 33.75C48.75 32.3692 47.6307 31.25 46.25 31.25C44.8692 31.25 43.75 32.3692 43.75 33.75C43.75 35.1308 44.8692 36.25 46.25 36.25ZM42.5 28.75C42.5 30.8211 40.8211 32.5 38.75 32.5C36.6789 32.5 35 30.8211 35 28.75C35 26.6789 36.6789 25 38.75 25C40.8211 25 42.5 26.6789 42.5 28.75Z" fill="#E90D33"/>
</svg>
