<svg width="36" height="36" viewBox="0 0 36 36" fill="none" xmlns="http://www.w3.org/2000/svg">
<path d="M3.37476 4.18437V31.8172C3.37494 31.8771 3.39282 31.9357 3.42616 31.9855C3.45949 32.0354 3.5068 32.0742 3.56214 32.0973C3.61748 32.1203 3.6784 32.1265 3.73725 32.1151C3.7961 32.1037 3.85027 32.0751 3.89296 32.033L18.281 18.0015L3.89296 3.96851C3.85027 3.92642 3.7961 3.89787 3.73725 3.88644C3.6784 3.87501 3.61748 3.88121 3.56214 3.90427C3.5068 3.92732 3.45949 3.9662 3.42616 4.01603C3.39282 4.06586 3.37494 4.12442 3.37476 4.18437Z" fill="#000D24"/>
<path d="M24.315 12.2356L6.27421 2.29619L6.26296 2.28986C5.95218 2.12111 5.65687 2.54158 5.9114 2.78626L20.0534 16.3088L24.315 12.2356Z" fill="#000D24"/>
<path d="M5.91271 33.2153C5.65678 33.46 5.95209 33.8805 6.26428 33.7117L6.27553 33.7054L24.3149 23.766L20.0533 19.6914L5.91271 33.2153Z" fill="#000D24"/>
<path d="M31.5978 16.2427L26.5592 13.4678L21.8215 18.0008L26.5592 22.5316L31.5978 19.7588C32.9684 19.0015 32.9684 17.0001 31.5978 16.2427Z" fill="#000D24"/>
</svg>
