<svg width="68" height="68" viewBox="0 0 68 68" fill="none" xmlns="http://www.w3.org/2000/svg">
<path d="M30 36C37.732 36 44 39.5817 44 44C44 48.4183 37.732 52 30 52C22.268 52 16 48.4183 16 44C16 39.5817 22.268 36 30 36ZM41.7734 36.0654C47.5598 36.4941 52 38.9876 52 42C51.9999 44.1553 49.7263 46.0456 46.3135 47.1035C46.7599 46.1194 47 45.0776 47 44C47 40.882 44.9946 38.0671 41.7734 36.0654ZM30 16C34.4183 16 38 19.5817 38 24C38 28.4183 34.4183 32 30 32C25.5817 32 22 28.4183 22 24C22 19.5817 25.5817 16 30 16ZM40.252 20.0059C43.4486 20.1381 45.9999 22.7709 46 26C46 29.3137 43.3136 31.9999 40 32C39.2699 32 38.57 31.8697 37.9229 31.6309C39.8282 29.653 41 26.9633 41 24C41 22.591 40.7347 21.244 40.252 20.0059Z" fill="#E90D33"/>
</svg>
