<svg width="60" height="60" viewBox="0 0 60 60" fill="none" xmlns="http://www.w3.org/2000/svg">
<path d="M24.5 12.0942V7.5H27V12.1916L26.9966 12.2374C26.9684 12.6215 26.8821 13.0558 26.6871 13.5131C27.296 13.732 27.3365 14.4497 27.3564 14.803C27.3596 14.86 27.3622 14.9075 27.3668 14.9419C28.2614 15.3585 28.775 16.4084 28.5336 17.42C28.2921 18.4318 27.3787 19.0557 26.4173 18.9176C26.1246 19.3365 25.7735 19.7108 25.3717 20.0259C25.5022 21.042 24.9134 22.0076 23.9574 22.2638C23.0014 22.52 22.0086 21.9781 21.6136 21.0329C21.1082 20.9609 20.617 20.8123 20.1541 20.5959C19.3905 21.1961 18.2875 21.1125 17.5725 20.357C17.0467 19.8015 16.8644 19.0238 17.03 18.3296C15.6961 18.6155 14.0214 19.2211 12.6497 20.3352C11.1713 21.5361 10 23.3562 10 26.2031V40.0695H7.5V26.2031C7.5 22.541 9.06081 20.0296 11.0735 18.3948C13.0396 16.7978 15.39 16.0677 17.0364 15.7823C20.6969 15.1475 22.5715 14.2783 23.5175 13.5509C24.3524 12.909 24.4734 12.3745 24.5 12.0942Z" fill="#E90D33"/>
<path d="M36.7146 7.5V12.4754C36.7698 12.8216 36.953 13.3361 37.6768 13.9019C38.4983 14.5439 40.0535 15.2775 42.9638 15.7823C44.6102 16.0677 46.9607 16.7978 48.9268 18.3948C50.9395 20.0296 52.5003 22.541 52.5003 26.2031V40.0695H50.0003V26.2031C50.0003 23.3562 48.829 21.5361 47.3506 20.3352C45.8256 19.0965 43.9261 18.4865 42.5367 18.2455C39.4174 17.7045 37.4107 16.8669 36.1374 15.8717C34.8149 14.8381 34.3437 13.6805 34.2241 12.716L34.2146 12.6394V7.5H36.7146Z" fill="#E90D33"/>
<path d="M43.3574 21.667C41.6167 21.667 40.2503 23.0691 40.2503 24.7871V25.7471C39.3441 24.9547 37.8926 24.7541 36.7177 25.3334C35.4492 25.9587 34.9414 27.2772 35.4714 28.4052C35.0154 28.8992 34.6402 29.45 34.3624 30.0431C32.9546 30.2161 31.8726 31.2502 31.8726 32.5005C31.8726 33.7506 32.9546 34.7847 34.3624 34.9577C34.6402 35.5509 35.0154 36.1015 35.4713 36.5955C34.9414 37.7236 35.4493 39.042 36.7177 39.6674C37.8926 40.2466 39.3441 40.046 40.2503 39.2535V52.5002H42.7503V24.7871C42.7503 24.427 43.0202 24.167 43.3574 24.167C43.6497 24.167 43.8397 24.2219 43.9604 24.2771C44.0816 24.3325 44.1658 24.4032 44.2277 24.475C44.2927 24.5505 44.3361 24.6311 44.3616 24.6966C44.3678 24.713 44.3723 24.7262 44.3753 24.7361V40.0697H46.8753V24.6719C46.8753 24.1671 46.6397 23.444 46.1211 22.8425C45.5436 22.1726 44.6304 21.667 43.3574 21.667Z" fill="#E90D33"/>
<path d="M13.8791 22.8425C14.4568 22.1726 15.3699 21.667 16.6429 21.667C18.6869 21.667 20 23.389 20 25.1879V40.2754C20.4191 39.9629 21.0194 39.903 21.5136 40.1669C22.0991 40.4795 22.3335 41.1387 22.0889 41.7027C22.2994 41.9497 22.4725 42.2252 22.6008 42.5217C23.2506 42.6082 23.75 43.1254 23.75 43.7504C23.75 44.3755 23.2506 44.8926 22.6008 44.9791C22.4725 45.2756 22.2994 45.551 22.0889 45.798C22.3335 46.362 22.0991 47.0211 21.5136 47.3339C21.0194 47.5977 20.4191 47.5379 20 47.2254V52.5002H17.5V25.1879C17.5 24.5181 17.0674 24.167 16.6429 24.167C16.3506 24.167 16.1606 24.2219 16.0399 24.2771C15.9187 24.3325 15.8345 24.4032 15.7726 24.475C15.7075 24.5505 15.6641 24.6311 15.6387 24.6966C15.6325 24.713 15.628 24.7262 15.625 24.7361V40.0697H13.125V24.6719C13.125 24.1671 13.3606 23.444 13.8791 22.8425Z" fill="#E90D33"/>
<path d="M31.2498 18.75C31.9401 18.75 32.4998 18.1904 32.4998 17.5C32.4998 16.8096 31.9401 16.25 31.2498 16.25C30.5594 16.25 29.9998 16.8096 29.9998 17.5C29.9998 18.1904 30.5594 18.75 31.2498 18.75Z" fill="#E90D33"/>
<path d="M28.7498 22.5C29.4401 22.5 29.9998 21.9404 29.9998 21.25C29.9998 20.5596 29.4401 20 28.7498 20C28.0594 20 27.4998 20.5596 27.4998 21.25C27.4998 21.9404 28.0594 22.5 28.7498 22.5Z" fill="#E90D33"/>
<path d="M25.625 40.2813C25.625 40.9716 25.0654 41.5313 24.375 41.5313C23.6846 41.5313 23.125 40.9716 23.125 40.2813C23.125 39.5909 23.6846 39.0312 24.375 39.0312C25.0654 39.0312 25.625 39.5909 25.625 40.2813Z" fill="#E90D33"/>
<path d="M26.25 45C26.9404 45 27.5 44.4404 27.5 43.75C27.5 43.0596 26.9404 42.5 26.25 42.5C25.5596 42.5 25 43.0596 25 43.75C25 44.4404 25.5596 45 26.25 45Z" fill="#E90D33"/>
<path d="M34.8224 40.2234C35.5012 40.3497 35.9491 41.0022 35.8229 41.6809C35.6967 42.3597 35.0442 42.8075 34.3654 42.6813C33.6867 42.5552 33.2388 41.9027 33.3651 41.2239C33.4912 40.5452 34.1437 40.0973 34.8224 40.2234Z" fill="#E90D33"/>
<path d="M32.9359 36.6942C33.6147 36.8203 34.0626 37.4728 33.9364 38.1515C33.8102 38.8303 33.1577 39.2782 32.4791 39.152C31.8003 39.0258 31.3523 38.3733 31.4786 37.6945C31.6047 37.0158 32.2572 36.5679 32.9359 36.6942Z" fill="#E90D33"/>
<path d="M32.5 26.25C33.1904 26.25 33.75 26.8096 33.75 27.5C33.75 28.1904 33.1904 28.75 32.5 28.75C31.8096 28.75 31.25 28.1904 31.25 27.5C31.25 26.8096 31.8096 26.25 32.5 26.25Z" fill="#E90D33"/>
</svg>
