<svg width="363" height="843" viewBox="0 0 363 843" fill="none" xmlns="http://www.w3.org/2000/svg">
<path d="M124.646 485.503C55.8061 554.344 -55.8061 554.344 -124.646 485.503L-324.081 286.069C-351.617 258.533 -351.617 213.888 -324.081 186.352L-253.317 115.588C-239.759 102.03 -212.992 110.471 -199.434 124.029L-49.8586 273.604C-22.3223 301.141 22.3223 301.141 49.8586 273.604L199.434 124.029C212.992 110.471 239.759 102.03 253.317 115.588L324.081 186.352C351.617 213.888 351.617 258.533 324.081 286.069L124.646 485.503Z" fill="#E90D33" fill-opacity="0.05"/>
<path d="M265.781 830.491C253.132 843.138 235.915 843.98 222.763 841.227C209.399 838.429 196.221 831.301 186.97 822.049L37.394 672.473C16.7419 651.821 -16.7419 651.821 -37.3939 672.473L-186.97 822.049C-196.222 831.301 -209.399 838.429 -222.763 841.227C-235.915 843.98 -253.133 843.138 -265.781 830.491L-336.545 759.726C-370.965 725.306 -370.965 669.499 -336.545 635.079L-174.505 473.039L-137.111 510.433C-61.3865 586.157 61.3865 586.157 137.111 510.433L174.505 473.039L336.545 635.079C369.89 668.424 370.934 721.84 339.673 756.439L336.545 759.726L265.781 830.491Z" fill="#E90D33" fill-opacity="0.05"/>
<path d="M77.1251 31.9462C119.72 74.5412 119.72 143.601 77.1251 186.196C34.5301 228.791 -34.5299 228.791 -77.1249 186.196C-119.72 143.601 -119.72 74.5412 -77.1249 31.9462C-34.5299 -10.6487 34.5302 -10.6487 77.1251 31.9462Z" fill="#E90D33" fill-opacity="0.05"/>
</svg>
