<svg width="1112" height="933" viewBox="0 0 1112 933" fill="none" xmlns="http://www.w3.org/2000/svg">
<g clip-path="url(#clip0_423_125)">
<path d="M668.323 561.616C606.289 623.651 505.711 623.651 443.677 561.616L263.96 381.899C239.146 357.085 239.146 316.854 263.96 292.04L327.728 228.272C339.945 216.055 364.065 223.661 376.283 235.879L511.071 370.667C535.885 395.481 576.115 395.481 600.929 370.667L735.717 235.879C747.934 223.662 772.055 216.055 784.272 228.272L848.04 292.04C872.854 316.854 872.854 357.085 848.04 381.899L668.323 561.616Z" fill="#E90D33" fill-opacity="0.05"/>
<path d="M795.504 872.496C784.106 883.893 768.591 884.651 756.739 882.171C744.696 879.649 732.822 873.226 724.485 864.889L589.697 730.101C571.087 711.49 540.913 711.491 522.303 730.101L387.515 864.889C379.178 873.226 367.304 879.649 355.26 882.171C343.409 884.651 327.893 883.893 316.496 872.496L252.727 808.727C221.71 777.71 221.71 727.421 252.727 696.404L398.747 550.384L432.444 584.081C500.682 652.319 611.317 652.319 679.556 584.081L713.253 550.384L859.273 696.404C889.321 726.452 890.261 774.587 862.091 805.766L859.273 808.727L795.504 872.496Z" fill="#E90D33" fill-opacity="0.05"/>
<ellipse cx="556" cy="222.4" rx="98.2878" ry="98.2878" transform="rotate(-45 556 222.4)" fill="#E90D33" fill-opacity="0.05"/>
</g>
<defs>
<clipPath id="clip0_423_125">
<rect width="786.303" height="786.303" fill="white" transform="translate(1112 556) rotate(135)"/>
</clipPath>
</defs>
</svg>
