<svg width="725" height="843" viewBox="0 0 725 843" fill="none" xmlns="http://www.w3.org/2000/svg">
<path d="M487.007 485.503C418.166 554.344 306.554 554.344 237.714 485.503L38.2796 286.069C10.7433 258.533 10.7433 213.888 38.2796 186.352L109.044 115.588C122.602 102.03 149.368 110.471 162.926 124.029L312.502 273.604C340.038 301.141 384.683 301.141 412.219 273.604L561.795 124.029C575.352 110.471 602.119 102.03 615.677 115.588L686.441 186.352C713.977 213.888 713.977 258.533 686.441 286.069L487.007 485.503Z" fill="#FEF3F4"/>
<path d="M628.141 830.491C615.493 843.138 598.275 843.98 585.123 841.227C571.759 838.429 558.582 831.301 549.33 822.049L399.754 672.473C379.102 651.821 345.618 651.821 324.966 672.473L175.391 822.049C166.139 831.301 152.962 838.429 139.597 841.227C126.445 843.98 109.228 843.138 96.5798 830.491L25.8149 759.726C-8.60497 725.306 -8.60497 669.499 25.8149 635.079L187.855 473.039L225.249 510.433C300.974 586.157 423.747 586.157 499.471 510.433L536.865 473.039L698.906 635.079C732.25 668.424 733.294 721.84 702.034 756.439L698.906 759.726L628.141 830.491Z" fill="#FEF3F4"/>
<path d="M439.485 31.9462C482.08 74.5412 482.08 143.601 439.485 186.196C396.89 228.791 327.83 228.791 285.235 186.196C242.641 143.601 242.641 74.5412 285.235 31.9462C327.83 -10.6487 396.891 -10.6487 439.485 31.9462Z" fill="#FEF3F4"/>
</svg>
